<svg width="510" height="828" viewBox="0 0 510 828" fill="none" xmlns="http://www.w3.org/2000/svg">
<path fill-rule="evenodd" clip-rule="evenodd" d="M227.642 64.231H283.3C283.3 85.1082 274.584 120.075 288.48 136.526C295.835 145.232 311.465 146.993 343.771 146.993C386.049 146.993 430.431 168.85 432.001 219.337H399.197C399.197 191.917 370.499 178.192 345.259 178.192C320.146 178.192 289.248 191.276 289.248 221.908C289.248 242.409 306.159 254.251 322.83 260.61C366.265 276.516 435.471 283.785 435.471 345.342C435.471 397.219 387.423 421.459 343.772 421.459C311.465 421.459 295.835 423.22 288.481 431.926C274.122 448.923 283.3 490.203 283.3 511.769H227.642C227.642 490.544 236.999 449.137 222.461 431.926C215.107 423.22 199.477 421.459 167.17 421.459C122.912 421.459 75.4707 396.199 75.4707 345.342C75.4707 291.108 131.929 276.992 172.622 265.624C193.944 259.802 221.694 248.842 221.694 221.908C221.694 191.733 191.042 178.192 165.683 178.192C140.442 178.192 111.751 192.22 111.751 219.337H78.9404C80.51 168.85 123.905 146.993 167.17 146.993C199.477 146.993 215.107 145.232 222.461 136.526C236.357 120.075 227.642 85.1082 227.642 64.231ZM284.291 348.942C286.889 380.209 317.349 392.658 343.772 392.658C371.418 392.658 405.73 377.922 405.73 344.827C405.73 306.638 351.523 300.03 323.945 291.854C283.837 279.889 264.377 246.668 255.471 213.955C246.565 246.668 227.104 279.889 186.997 291.854C159.743 299.933 105.211 305.102 105.211 344.827C105.211 378.299 139.782 392.658 167.17 392.658C193.592 392.658 224.053 380.209 226.65 348.942H284.291Z" fill="white"/>
<path d="M94.841 633.469C90.241 633.469 86.1077 632.669 82.441 631.069C78.841 629.402 76.0077 627.136 73.941 624.269C71.8743 621.336 70.8077 617.969 70.741 614.169H80.441C80.7744 617.436 82.1077 620.202 84.441 622.469C86.841 624.669 90.3077 625.769 94.841 625.769C99.1743 625.769 102.574 624.702 105.041 622.569C107.574 620.369 108.841 617.569 108.841 614.169C108.841 611.502 108.108 609.336 106.641 607.669C105.174 606.002 103.341 604.736 101.141 603.869C98.941 603.002 95.9744 602.069 92.241 601.069C87.641 599.869 83.941 598.669 81.141 597.469C78.4077 596.269 76.041 594.402 74.041 591.869C72.1077 589.269 71.141 585.802 71.141 581.469C71.141 577.669 72.1077 574.302 74.041 571.369C75.9743 568.436 78.6743 566.169 82.141 564.569C85.6743 562.969 89.7077 562.169 94.241 562.169C100.774 562.169 106.108 563.802 110.241 567.069C114.441 570.336 116.808 574.669 117.341 580.069H107.341C107.008 577.402 105.608 575.069 103.141 573.069C100.674 571.002 97.4077 569.969 93.341 569.969C89.541 569.969 86.441 570.969 84.041 572.969C81.641 574.902 80.441 577.636 80.441 581.169C80.441 583.702 81.141 585.769 82.541 587.369C84.0077 588.969 85.7744 590.202 87.841 591.069C89.9744 591.869 92.941 592.802 96.741 593.869C101.341 595.136 105.041 596.402 107.841 597.669C110.641 598.869 113.041 600.769 115.041 603.369C117.041 605.902 118.041 609.369 118.041 613.769C118.041 617.169 117.141 620.369 115.341 623.369C113.541 626.369 110.874 628.802 107.341 630.669C103.808 632.536 99.641 633.469 94.841 633.469ZM181.432 603.269C181.432 605.002 181.332 606.836 181.132 608.769H137.332C137.666 614.169 139.499 618.402 142.832 621.469C146.232 624.469 150.332 625.969 155.132 625.969C159.066 625.969 162.332 625.069 164.932 623.269C167.599 621.402 169.466 618.936 170.532 615.869H180.332C178.866 621.136 175.932 625.436 171.532 628.769C167.132 632.036 161.666 633.669 155.132 633.669C149.932 633.669 145.266 632.502 141.132 630.169C137.066 627.836 133.866 624.536 131.532 620.269C129.199 615.936 128.032 610.936 128.032 605.269C128.032 599.602 129.166 594.636 131.432 590.369C133.699 586.102 136.866 582.836 140.932 580.569C145.066 578.236 149.799 577.069 155.132 577.069C160.332 577.069 164.932 578.202 168.932 580.469C172.932 582.736 175.999 585.869 178.132 589.869C180.332 593.802 181.432 598.269 181.432 603.269ZM172.032 601.369C172.032 597.902 171.266 594.936 169.732 592.469C168.199 589.936 166.099 588.036 163.432 586.769C160.832 585.436 157.932 584.769 154.732 584.769C150.132 584.769 146.199 586.236 142.932 589.169C139.732 592.102 137.899 596.169 137.432 601.369H172.032ZM202.544 588.069C204.344 584.936 207.011 582.336 210.544 580.269C214.144 578.136 218.311 577.069 223.044 577.069C227.911 577.069 232.311 578.236 236.244 580.569C240.244 582.902 243.377 586.202 245.644 590.469C247.911 594.669 249.044 599.569 249.044 605.169C249.044 610.702 247.911 615.636 245.644 619.969C243.377 624.302 240.244 627.669 236.244 630.069C232.311 632.469 227.911 633.669 223.044 633.669C218.377 633.669 214.244 632.636 210.644 630.569C207.111 628.436 204.411 625.802 202.544 622.669V658.769H193.444V577.969H202.544V588.069ZM239.744 605.169C239.744 601.036 238.911 597.436 237.244 594.369C235.577 591.302 233.311 588.969 230.444 587.369C227.644 585.769 224.544 584.969 221.144 584.969C217.811 584.969 214.711 585.802 211.844 587.469C209.044 589.069 206.777 591.436 205.044 594.569C203.377 597.636 202.544 601.202 202.544 605.269C202.544 609.402 203.377 613.036 205.044 616.169C206.777 619.236 209.044 621.602 211.844 623.269C214.711 624.869 217.811 625.669 221.144 625.669C224.544 625.669 227.644 624.869 230.444 623.269C233.311 621.602 235.577 619.236 237.244 616.169C238.911 613.036 239.744 609.369 239.744 605.169ZM272.122 585.469V617.769C272.122 620.436 272.689 622.336 273.822 623.469C274.956 624.536 276.922 625.069 279.722 625.069H286.422V632.769H278.222C273.156 632.769 269.356 631.602 266.822 629.269C264.289 626.936 263.022 623.102 263.022 617.769V585.469H255.922V577.969H263.022V564.169H272.122V577.969H286.422V585.469H272.122ZM302.148 569.069C300.415 569.069 298.948 568.469 297.748 567.269C296.548 566.069 295.948 564.602 295.948 562.869C295.948 561.136 296.548 559.669 297.748 558.469C298.948 557.269 300.415 556.669 302.148 556.669C303.815 556.669 305.215 557.269 306.348 558.469C307.548 559.669 308.148 561.136 308.148 562.869C308.148 564.602 307.548 566.069 306.348 567.269C305.215 568.469 303.815 569.069 302.148 569.069ZM306.548 577.969V632.769H297.448V577.969H306.548ZM318.657 605.169C318.657 599.569 319.791 594.669 322.057 590.469C324.324 586.202 327.424 582.902 331.357 580.569C335.357 578.236 339.791 577.069 344.657 577.069C349.457 577.069 353.624 578.102 357.157 580.169C360.691 582.236 363.324 584.836 365.057 587.969V577.969H374.257V632.769H365.057V622.569C363.257 625.769 360.557 628.436 356.957 630.569C353.424 632.636 349.291 633.669 344.557 633.669C339.691 633.669 335.291 632.469 331.357 630.069C327.424 627.669 324.324 624.302 322.057 619.969C319.791 615.636 318.657 610.702 318.657 605.169ZM365.057 605.269C365.057 601.136 364.224 597.536 362.557 594.469C360.891 591.402 358.624 589.069 355.757 587.469C352.957 585.802 349.857 584.969 346.457 584.969C343.057 584.969 339.957 585.769 337.157 587.369C334.357 588.969 332.124 591.302 330.457 594.369C328.791 597.436 327.957 601.036 327.957 605.169C327.957 609.369 328.791 613.036 330.457 616.169C332.124 619.236 334.357 621.602 337.157 623.269C339.957 624.869 343.057 625.669 346.457 625.669C349.857 625.669 352.957 624.869 355.757 623.269C358.624 621.602 360.891 619.236 362.557 616.169C364.224 613.036 365.057 609.402 365.057 605.269ZM416.336 576.969C423.002 576.969 428.402 579.002 432.536 583.069C436.669 587.069 438.736 592.869 438.736 600.469V632.769H429.736V601.769C429.736 596.302 428.369 592.136 425.636 589.269C422.902 586.336 419.169 584.869 414.436 584.869C409.636 584.869 405.802 586.369 402.936 589.369C400.136 592.369 398.736 596.736 398.736 602.469V632.769H389.636V577.969H398.736V585.769C400.536 582.969 402.969 580.802 406.036 579.269C409.169 577.736 412.602 576.969 416.336 576.969ZM188.628 699.469C188.628 705.269 186.628 710.102 182.628 713.969C178.695 717.769 172.661 719.669 164.528 719.669H151.128V748.769H142.028V679.069H164.528C172.395 679.069 178.361 680.969 182.428 684.769C186.561 688.569 188.628 693.469 188.628 699.469ZM164.528 712.169C169.595 712.169 173.328 711.069 175.728 708.869C178.128 706.669 179.328 703.536 179.328 699.469C179.328 690.869 174.395 686.569 164.528 686.569H151.128V712.169H164.528ZM196.538 721.169C196.538 715.569 197.672 710.669 199.938 706.469C202.205 702.202 205.305 698.902 209.238 696.569C213.238 694.236 217.672 693.069 222.538 693.069C227.338 693.069 231.505 694.102 235.038 696.169C238.572 698.236 241.205 700.836 242.938 703.969V693.969H252.138V748.769H242.938V738.569C241.138 741.769 238.438 744.436 234.838 746.569C231.305 748.636 227.172 749.669 222.438 749.669C217.572 749.669 213.172 748.469 209.238 746.069C205.305 743.669 202.205 740.302 199.938 735.969C197.672 731.636 196.538 726.702 196.538 721.169ZM242.938 721.269C242.938 717.136 242.105 713.536 240.438 710.469C238.772 707.402 236.505 705.069 233.638 703.469C230.838 701.802 227.738 700.969 224.338 700.969C220.938 700.969 217.838 701.769 215.038 703.369C212.238 704.969 210.005 707.302 208.338 710.369C206.672 713.436 205.838 717.036 205.838 721.169C205.838 725.369 206.672 729.036 208.338 732.169C210.005 735.236 212.238 737.602 215.038 739.269C217.838 740.869 220.938 741.669 224.338 741.669C227.738 741.669 230.838 740.869 233.638 739.269C236.505 737.602 238.772 735.236 240.438 732.169C242.105 729.036 242.938 725.402 242.938 721.269ZM264.116 721.169C264.116 715.569 265.25 710.669 267.516 706.469C269.783 702.202 272.883 698.902 276.816 696.569C280.816 694.236 285.283 693.069 290.216 693.069C294.483 693.069 298.45 694.069 302.116 696.069C305.783 698.002 308.583 700.569 310.516 703.769V674.769H319.716V748.769H310.516V738.469C308.716 741.736 306.05 744.436 302.516 746.569C298.983 748.636 294.85 749.669 290.116 749.669C285.25 749.669 280.816 748.469 276.816 746.069C272.883 743.669 269.783 740.302 267.516 735.969C265.25 731.636 264.116 726.702 264.116 721.169ZM310.516 721.269C310.516 717.136 309.683 713.536 308.016 710.469C306.35 707.402 304.083 705.069 301.216 703.469C298.416 701.802 295.316 700.969 291.916 700.969C288.516 700.969 285.416 701.769 282.616 703.369C279.816 704.969 277.583 707.302 275.916 710.369C274.25 713.436 273.416 717.036 273.416 721.169C273.416 725.369 274.25 729.036 275.916 732.169C277.583 735.236 279.816 737.602 282.616 739.269C285.416 740.869 288.516 741.669 291.916 741.669C295.316 741.669 298.416 740.869 301.216 739.269C304.083 737.602 306.35 735.236 308.016 732.169C309.683 729.036 310.516 725.402 310.516 721.269ZM344.195 674.769V748.769H335.095V674.769H344.195ZM364.404 685.069C362.671 685.069 361.204 684.469 360.004 683.269C358.804 682.069 358.204 680.602 358.204 678.869C358.204 677.136 358.804 675.669 360.004 674.469C361.204 673.269 362.671 672.669 364.404 672.669C366.071 672.669 367.471 673.269 368.604 674.469C369.804 675.669 370.404 677.136 370.404 678.869C370.404 680.602 369.804 682.069 368.604 683.269C367.471 684.469 366.071 685.069 364.404 685.069ZM368.804 693.969V748.769H359.704V693.969H368.804Z" fill="white"/>
</svg>
