<svg width="1081" height="1080" viewBox="0 0 1081 1080" fill="none" xmlns="http://www.w3.org/2000/svg">
<path fill-rule="evenodd" clip-rule="evenodd" d="M494.016 180H586.925C586.925 213.587 572.376 269.842 595.573 296.308C607.849 310.315 633.94 313.148 687.869 313.148C758.443 313.148 832.53 348.31 835.15 429.534H780.391C780.391 385.422 732.486 363.341 690.352 363.341C648.433 363.341 596.854 384.391 596.854 433.672C596.854 466.653 625.084 485.704 652.911 495.934C725.418 521.525 840.942 533.22 840.942 632.251C840.942 715.712 760.736 754.709 687.87 754.709C633.941 754.709 607.85 757.542 595.573 771.548C571.605 798.894 586.925 865.304 586.925 900H494.016C494.016 865.854 509.636 799.237 485.368 771.548C473.091 757.542 447 754.709 393.071 754.709C319.192 754.709 239.999 714.07 239.999 632.251C239.999 545 334.243 522.29 402.173 504.002C437.765 494.635 484.087 477.003 484.087 433.672C484.087 385.125 432.92 363.341 390.589 363.341C348.455 363.341 300.562 385.91 300.562 429.534H245.791C248.411 348.31 320.85 313.148 393.071 313.148C447 313.148 473.091 310.315 485.368 296.308C508.565 269.842 494.016 213.587 494.016 180ZM588.58 638.043C592.916 688.346 643.764 708.373 687.87 708.373C734.019 708.373 791.297 684.667 791.297 631.424C791.297 569.985 700.809 559.353 654.773 546.2C587.822 526.951 555.337 473.505 540.47 420.876C525.603 473.505 493.119 526.951 426.168 546.2C380.673 559.198 289.644 567.513 289.644 631.424C289.644 685.273 347.352 708.373 393.071 708.373C437.177 708.373 488.024 688.346 492.361 638.043H588.58Z" fill="white"/>
</svg>
