<svg width="983" height="488" viewBox="0 0 983 488" fill="none" xmlns="http://www.w3.org/2000/svg">
<path fill-rule="evenodd" clip-rule="evenodd" d="M191.244 64H237.698C237.698 80.7936 230.424 108.921 242.022 122.154C248.16 129.157 261.206 130.574 288.171 130.574C323.457 130.574 360.501 148.155 361.811 188.767H334.431C334.431 166.711 310.479 155.671 289.412 155.671C268.452 155.671 242.663 166.195 242.663 190.836C242.663 207.326 256.778 216.852 270.692 221.967C306.945 234.763 364.707 240.61 364.707 290.126C364.707 331.856 324.604 351.354 288.171 351.354C261.206 351.354 248.161 352.771 242.022 359.774C230.039 373.447 237.698 406.652 237.698 424H191.244C191.244 406.927 199.054 373.619 186.92 359.774C180.781 352.771 167.736 351.354 140.771 351.354C103.832 351.354 64.2354 331.035 64.2354 290.126C64.2354 246.5 111.358 235.145 145.322 226.001C163.118 221.318 186.279 212.501 186.279 190.836C186.279 166.563 160.696 155.671 139.53 155.671C118.463 155.671 94.5166 166.955 94.5166 188.767H67.1313C68.4413 148.155 104.661 130.574 140.771 130.574C167.736 130.574 180.782 129.157 186.92 122.154C198.518 108.921 191.244 80.7936 191.244 64ZM238.526 293.022C240.694 318.173 266.118 328.187 288.171 328.187C311.245 328.187 339.884 316.334 339.884 289.712C339.884 258.992 294.64 253.677 271.622 247.1C238.147 237.476 221.904 210.753 214.471 184.438C207.038 210.753 190.795 237.476 157.32 247.1C134.572 253.599 89.0578 257.757 89.0578 289.712C89.0578 316.636 117.912 328.187 140.771 328.187C162.824 328.187 188.248 318.173 190.416 293.022H238.526Z" fill="white"/>
<path d="M441.235 216.952C434.979 216.952 429.358 215.864 424.371 213.688C419.475 211.421 415.622 208.339 412.811 204.44C410 200.451 408.55 195.872 408.459 190.704H421.651C422.104 195.147 423.918 198.909 427.091 201.992C430.355 204.984 435.07 206.48 441.235 206.48C447.128 206.48 451.752 205.029 455.107 202.128C458.552 199.136 460.275 195.328 460.275 190.704C460.275 187.077 459.278 184.131 457.283 181.864C455.288 179.597 452.795 177.875 449.803 176.696C446.811 175.517 442.776 174.248 437.699 172.888C431.443 171.256 426.411 169.624 422.603 167.992C418.886 166.36 415.667 163.821 412.947 160.376C410.318 156.84 409.003 152.125 409.003 146.232C409.003 141.064 410.318 136.485 412.947 132.496C415.576 128.507 419.248 125.424 423.963 123.248C428.768 121.072 434.254 119.984 440.419 119.984C449.304 119.984 456.558 122.205 462.179 126.648C467.891 131.091 471.11 136.984 471.835 144.328H458.235C457.782 140.701 455.878 137.528 452.523 134.808C449.168 131.997 444.726 130.592 439.195 130.592C434.027 130.592 429.811 131.952 426.547 134.672C423.283 137.301 421.651 141.019 421.651 145.824C421.651 149.269 422.603 152.08 424.507 154.256C426.502 156.432 428.904 158.109 431.715 159.288C434.616 160.376 438.651 161.645 443.819 163.096C450.075 164.819 455.107 166.541 458.915 168.264C462.723 169.896 465.987 172.48 468.707 176.016C471.427 179.461 472.787 184.176 472.787 190.16C472.787 194.784 471.563 199.136 469.115 203.216C466.667 207.296 463.04 210.605 458.235 213.144C453.43 215.683 447.763 216.952 441.235 216.952ZM558.999 175.88C558.999 178.237 558.863 180.731 558.591 183.36H499.023C499.477 190.704 501.97 196.461 506.503 200.632C511.127 204.712 516.703 206.752 523.231 206.752C528.581 206.752 533.023 205.528 536.559 203.08C540.186 200.541 542.725 197.187 544.175 193.016H557.503C555.509 200.179 551.519 206.027 545.535 210.56C539.551 215.003 532.117 217.224 523.231 217.224C516.159 217.224 509.813 215.637 504.191 212.464C498.661 209.291 494.309 204.803 491.135 199C487.962 193.107 486.375 186.307 486.375 178.6C486.375 170.893 487.917 164.139 490.999 158.336C494.082 152.533 498.389 148.091 503.919 145.008C509.541 141.835 515.978 140.248 523.231 140.248C530.303 140.248 536.559 141.789 541.999 144.872C547.439 147.955 551.61 152.216 554.511 157.656C557.503 163.005 558.999 169.08 558.999 175.88ZM546.215 173.296C546.215 168.581 545.173 164.547 543.087 161.192C541.002 157.747 538.146 155.163 534.519 153.44C530.983 151.627 527.039 150.72 522.687 150.72C516.431 150.72 511.082 152.715 506.639 156.704C502.287 160.693 499.794 166.224 499.159 173.296H546.215ZM587.711 155.208C590.159 150.947 593.786 147.411 598.591 144.6C603.487 141.699 609.154 140.248 615.591 140.248C622.21 140.248 628.194 141.835 633.543 145.008C638.983 148.181 643.245 152.669 646.327 158.472C649.41 164.184 650.951 170.848 650.951 178.464C650.951 185.989 649.41 192.699 646.327 198.592C643.245 204.485 638.983 209.064 633.543 212.328C628.194 215.592 622.21 217.224 615.591 217.224C609.245 217.224 603.623 215.819 598.727 213.008C593.922 210.107 590.25 206.525 587.711 202.264V251.36H575.335V141.472H587.711V155.208ZM638.303 178.464C638.303 172.843 637.17 167.947 634.903 163.776C632.637 159.605 629.554 156.432 625.655 154.256C621.847 152.08 617.631 150.992 613.007 150.992C608.474 150.992 604.258 152.125 600.359 154.392C596.551 156.568 593.469 159.787 591.111 164.048C588.845 168.219 587.711 173.069 587.711 178.6C587.711 184.221 588.845 189.163 591.111 193.424C593.469 197.595 596.551 200.813 600.359 203.08C604.258 205.256 608.474 206.344 613.007 206.344C617.631 206.344 621.847 205.256 625.655 203.08C629.554 200.813 632.637 197.595 634.903 193.424C637.17 189.163 638.303 184.176 638.303 178.464ZM682.338 151.672V195.6C682.338 199.227 683.108 201.811 684.65 203.352C686.191 204.803 688.866 205.528 692.674 205.528H701.786V216H690.634C683.743 216 678.575 214.413 675.13 211.24C671.684 208.067 669.962 202.853 669.962 195.6V151.672H660.306V141.472H669.962V122.704H682.338V141.472H701.786V151.672H682.338ZM723.173 129.368C720.815 129.368 718.821 128.552 717.189 126.92C715.557 125.288 714.741 123.293 714.741 120.936C714.741 118.579 715.557 116.584 717.189 114.952C718.821 113.32 720.815 112.504 723.173 112.504C725.439 112.504 727.343 113.32 728.885 114.952C730.517 116.584 731.333 118.579 731.333 120.936C731.333 123.293 730.517 125.288 728.885 126.92C727.343 128.552 725.439 129.368 723.173 129.368ZM729.157 141.472V216H716.781V141.472H729.157ZM745.625 178.464C745.625 170.848 747.167 164.184 750.249 158.472C753.332 152.669 757.548 148.181 762.897 145.008C768.337 141.835 774.367 140.248 780.985 140.248C787.513 140.248 793.18 141.653 797.985 144.464C802.791 147.275 806.372 150.811 808.729 155.072V141.472H821.241V216H808.729V202.128C806.281 206.48 802.609 210.107 797.713 213.008C792.908 215.819 787.287 217.224 780.849 217.224C774.231 217.224 768.247 215.592 762.897 212.328C757.548 209.064 753.332 204.485 750.249 198.592C747.167 192.699 745.625 185.989 745.625 178.464ZM808.729 178.6C808.729 172.979 807.596 168.083 805.329 163.912C803.063 159.741 799.98 156.568 796.081 154.392C792.273 152.125 788.057 150.992 783.433 150.992C778.809 150.992 774.593 152.08 770.785 154.256C766.977 156.432 763.94 159.605 761.673 163.776C759.407 167.947 758.273 172.843 758.273 178.464C758.273 184.176 759.407 189.163 761.673 193.424C763.94 197.595 766.977 200.813 770.785 203.08C774.593 205.256 778.809 206.344 783.433 206.344C788.057 206.344 792.273 205.256 796.081 203.08C799.98 200.813 803.063 197.595 805.329 193.424C807.596 189.163 808.729 184.221 808.729 178.6ZM878.468 140.112C887.534 140.112 894.878 142.877 900.5 148.408C906.121 153.848 908.932 161.736 908.932 172.072V216H896.692V173.84C896.692 166.405 894.833 160.739 891.116 156.84C887.398 152.851 882.321 150.856 875.884 150.856C869.356 150.856 864.142 152.896 860.244 156.976C856.436 161.056 854.532 166.995 854.532 174.792V216H842.156V141.472H854.532V152.08C856.98 148.272 860.289 145.325 864.46 143.24C868.721 141.155 873.39 140.112 878.468 140.112ZM474.555 300.952C474.555 308.84 471.835 315.413 466.395 320.672C461.046 325.84 452.84 328.424 441.779 328.424H423.555V368H411.179V273.208H441.779C452.478 273.208 460.592 275.792 466.123 280.96C471.744 286.128 474.555 292.792 474.555 300.952ZM441.779 318.224C448.67 318.224 453.747 316.728 457.011 313.736C460.275 310.744 461.907 306.483 461.907 300.952C461.907 289.256 455.198 283.408 441.779 283.408H423.555V318.224H441.779ZM485.313 330.464C485.313 322.848 486.854 316.184 489.937 310.472C493.02 304.669 497.236 300.181 502.585 297.008C508.025 293.835 514.054 292.248 520.673 292.248C527.201 292.248 532.868 293.653 537.673 296.464C542.478 299.275 546.06 302.811 548.417 307.072V293.472H560.929V368H548.417V354.128C545.969 358.48 542.297 362.107 537.401 365.008C532.596 367.819 526.974 369.224 520.537 369.224C513.918 369.224 507.934 367.592 502.585 364.328C497.236 361.064 493.02 356.485 489.937 350.592C486.854 344.699 485.313 337.989 485.313 330.464ZM548.417 330.6C548.417 324.979 547.284 320.083 545.017 315.912C542.75 311.741 539.668 308.568 535.769 306.392C531.961 304.125 527.745 302.992 523.121 302.992C518.497 302.992 514.281 304.08 510.473 306.256C506.665 308.432 503.628 311.605 501.361 315.776C499.094 319.947 497.961 324.843 497.961 330.464C497.961 336.176 499.094 341.163 501.361 345.424C503.628 349.595 506.665 352.813 510.473 355.08C514.281 357.256 518.497 358.344 523.121 358.344C527.745 358.344 531.961 357.256 535.769 355.08C539.668 352.813 542.75 349.595 545.017 345.424C547.284 341.163 548.417 336.221 548.417 330.6ZM577.219 330.464C577.219 322.848 578.76 316.184 581.843 310.472C584.926 304.669 589.142 300.181 594.491 297.008C599.931 293.835 606.006 292.248 612.715 292.248C618.518 292.248 623.912 293.608 628.899 296.328C633.886 298.957 637.694 302.448 640.323 306.8V267.36H652.835V368H640.323V353.992C637.875 358.435 634.248 362.107 629.443 365.008C624.638 367.819 619.016 369.224 612.579 369.224C605.96 369.224 599.931 367.592 594.491 364.328C589.142 361.064 584.926 356.485 581.843 350.592C578.76 344.699 577.219 337.989 577.219 330.464ZM640.323 330.6C640.323 324.979 639.19 320.083 636.923 315.912C634.656 311.741 631.574 308.568 627.675 306.392C623.867 304.125 619.651 302.992 615.027 302.992C610.403 302.992 606.187 304.08 602.379 306.256C598.571 308.432 595.534 311.605 593.267 315.776C591 319.947 589.867 324.843 589.867 330.464C589.867 336.176 591 341.163 593.267 345.424C595.534 349.595 598.571 352.813 602.379 355.08C606.187 357.256 610.403 358.344 615.027 358.344C619.651 358.344 623.867 357.256 627.675 355.08C631.574 352.813 634.656 349.595 636.923 345.424C639.19 341.163 640.323 336.221 640.323 330.6ZM686.125 267.36V368H673.749V267.36H686.125ZM713.61 281.368C711.253 281.368 709.258 280.552 707.626 278.92C705.994 277.288 705.178 275.293 705.178 272.936C705.178 270.579 705.994 268.584 707.626 266.952C709.258 265.32 711.253 264.504 713.61 264.504C715.877 264.504 717.781 265.32 719.322 266.952C720.954 268.584 721.77 270.579 721.77 272.936C721.77 275.293 720.954 277.288 719.322 278.92C717.781 280.552 715.877 281.368 713.61 281.368ZM719.594 293.472V368H707.218V293.472H719.594Z" fill="white"/>
</svg>
